<?xml version="1.0" standalone="no"?>
<!DOCTYPE svg PUBLIC "-//W3C//DTD SVG 20010904//EN"
 "http://www.w3.org/TR/2001/REC-SVG-20010904/DTD/svg10.dtd">
<svg version="1.0" xmlns="http://www.w3.org/2000/svg"
 width="25.000000pt" height="25.000000pt" viewBox="0 0 25.000000 25.000000"
 preserveAspectRatio="xMidYMid meet">

<g transform="translate(0.000000,25.000000) scale(0.100000,-0.100000)"
fill="#000000" stroke="none">
<path d="M48 211 c-18 -16 -29 -33 -25 -38 5 -4 13 0 19 11 5 10 26 24 45 32
42 18 94 5 118 -29 8 -11 18 -17 22 -13 5 4 -7 21 -25 37 -46 41 -108 41 -154
0z"/>
<path d="M20 146 c-28 -35 13 -88 44 -56 8 9 6 11 -10 6 -15 -5 -24 -2 -28 10
-9 24 3 36 33 30 25 -6 25 -6 7 9 -24 19 -30 19 -46 1z"/>
<path d="M91 113 c1 -21 3 -30 6 -20 5 21 33 23 33 2 0 -8 4 -15 9 -15 5 0 9
16 9 35 0 32 -3 35 -29 35 -27 0 -29 -3 -28 -37z m39 17 c0 -5 -4 -10 -9 -10
-6 0 -13 5 -16 10 -3 6 1 10 9 10 9 0 16 -4 16 -10z"/>
<path d="M171 113 c1 -34 2 -35 9 -13 5 16 8 19 9 8 2 -27 22 -32 29 -7 l6 24
7 -25 c6 -22 7 -20 8 13 1 40 -17 51 -27 15 l-5 -22 -8 22 c-13 35 -29 26 -28
-15z"/>
<path d="M53 35 c37 -33 103 -34 141 -4 37 29 28 33 -19 9 -48 -25 -52 -25
-100 0 -51 26 -56 25 -22 -5z"/>
</g>
</svg>
