<svg version="1.2" xmlns="http://www.w3.org/2000/svg" viewBox="0 0 27 27" width="27" height="27">
	<title>title_shape_2-svg</title>
	<style>
		.s0 { fill: none;stroke: #f95d29 } 
		.s1 { fill: #f95d29 } 
	</style>
	<g id="SvgjsG1008">
		<g id="Layer">
			<path id="Layer" class="s0" d="m13.5 15.5c0-1.1 0.9-2 2-2h9c1.1 0 2 0.9 2 2v9c0 1.1-0.9 2-2 2h-9c-1.1 0-2-0.9-2-2z"/>
			<path id="Layer" class="s0" d="m0.5 15.5c0-1.1 0.9-2 2-2h9c1.1 0 2 0.9 2 2v9c0 1.1-0.9 2-2 2h-9c-1.1 0-2-0.9-2-2z"/>
			<path id="Layer" class="s0" d="m13.5 3.5c0-1.7 1.3-3 3-3h7c1.7 0 3 1.3 3 3v7c0 1.7-1.3 3-3 3h-7c-1.7 0-3-1.3-3-3z"/>
			<path id="Layer" class="s0" d="m0.5 3.5c0-1.7 1.3-3 3-3h7c1.7 0 3 1.3 3 3v7c0 1.7-1.3 3-3 3h-7c-1.7 0-3-1.3-3-3z"/>
			<path id="Layer" class="s1" d="m6 9c0-1.7 1.3-3 3-3h9c1.7 0 3 1.3 3 3v9c0 1.7-1.3 3-3 3h-9c-1.7 0-3-1.3-3-3z"/>
		</g>
	</g>
</svg>