<?xml version="1.0" standalone="no"?>
<!DOCTYPE svg PUBLIC "-//W3C//DTD SVG 20010904//EN"
 "http://www.w3.org/TR/2001/REC-SVG-20010904/DTD/svg10.dtd">
<svg version="1.0" xmlns="http://www.w3.org/2000/svg"
 width="25.000000pt" height="25.000000pt" viewBox="0 0 25.000000 25.000000"
 preserveAspectRatio="xMidYMid meet">

<g transform="translate(0.000000,25.000000) scale(0.100000,-0.100000)"
fill="#000000" stroke="none">
<path d="M94 240 c22 -4 48 -18 58 -30 10 -12 18 -18 18 -12 0 20 -53 52 -84
51 -29 -1 -28 -2 8 -9z"/>
<path d="M19 223 c-8 -9 -14 -40 -14 -73 -1 -50 1 -56 17 -52 10 2 21 8 24 13
3 5 -1 6 -9 3 -10 -3 -16 5 -21 27 -9 48 -8 57 14 79 11 11 16 20 11 20 -5 0
-15 -7 -22 -17z"/>
<path d="M65 191 c-8 -27 1 -41 26 -41 16 0 20 6 17 27 -4 34 -33 43 -43 14z
m35 -11 c0 -11 -7 -20 -15 -20 -15 0 -21 21 -8 33 12 13 23 7 23 -13z"/>
<path d="M150 138 c-9 -11 -34 -24 -55 -28 -38 -7 -38 -8 -8 -9 20 -1 42 8 62
25 34 29 64 26 82 -7 14 -27 2 -102 -15 -96 -7 3 -28 1 -47 -3 l-34 -8 40 0
c22 1 47 -2 55 -6 13 -5 16 3 15 55 0 52 -4 64 -24 80 -30 24 -52 24 -71 -3z"/>
<path d="M150 84 c-12 -32 -13 -44 -1 -25 8 12 12 13 25 1 14 -11 16 -10 10 4
-3 9 -10 16 -15 16 -4 0 -6 7 -3 15 4 8 3 15 0 15 -4 0 -11 -12 -16 -26z"/>
<path d="M81 69 c-1 -17 29 -49 45 -49 5 0 1 5 -9 11 -10 6 -22 20 -27 32 -6
15 -9 17 -9 6z"/>
</g>
</svg>
