<?xml version="1.0" encoding="UTF-8"?>
<svg xmlns="http://www.w3.org/2000/svg" xmlns:xlink="http://www.w3.org/1999/xlink" width="25px" height="25px" viewBox="0 0 25 25" version="1.1">
<g id="surface1">
<path style=" stroke:none;fill-rule:nonzero;fill:rgb(12.941176%,12.941176%,12.941176%);fill-opacity:1;" d="M 3.382812 2.476562 L 22.195312 11.472656 C 22.753906 11.738281 22.988281 12.40625 22.722656 12.960938 C 22.613281 13.191406 22.425781 13.375 22.195312 13.488281 L 3.382812 22.484375 C 2.828125 22.75 2.160156 22.515625 1.894531 21.960938 C 1.78125 21.71875 1.753906 21.441406 1.824219 21.183594 L 3.707031 14.285156 C 3.753906 14.113281 3.898438 13.984375 4.078125 13.960938 L 13.195312 12.722656 C 13.273438 12.710938 13.339844 12.65625 13.367188 12.585938 L 13.382812 12.53125 C 13.398438 12.425781 13.339844 12.328125 13.242188 12.292969 L 13.195312 12.277344 L 4.089844 11.039062 C 3.910156 11.015625 3.765625 10.886719 3.71875 10.714844 L 1.824219 3.777344 C 1.664062 3.179688 2.015625 2.566406 2.609375 2.40625 C 2.867188 2.335938 3.140625 2.359375 3.382812 2.476562 Z M 3.382812 2.476562 "/>
</g>
</svg>
